#!OML:ASF F:\VICON\USERDATA\INSTALL\Justin_Nancy\Justin_Nancy.ASF
:FULLY-SPECIFIED
:DEGREES
244
root -0.129278 17.4742 -5.52089 3.3716 -6.25084 -2.93462
lowerback 7.45592 1.5382 3.12454
upperback 0.898354 2.38392 2.49516
thorax -3.22976 1.15681 0.584863
lowerneck -16.4718 -4.72905 -9.19221
upperneck 20.336 -5.72964 6.79807
head 9.62044 -2.63578 3.1293
rclavicle 1.44119e-014 -1.59028e-015
rhumerus -27.6345 -7.33906 -81.0367
rradius 32.2591
rwrist 4.01338
rhand -15.5798 11.5483
rfingers 7.12502
rthumb 10.6055 -18.164
lclavicle 1.44119e-014 -1.59028e-015
lhumerus -34.7739 3.56324 85.6851
lradius 32.6025
lwrist -6.83887
lhand -10.1927 26.5947
lfingers 7.12502
lthumb 15.7981 55.9701
rfemur -0.939893 4.43757 28.8627
rtibia 20.796
rfoot -16.3714 -5.70687
rtoes 0.291534
lfemur -32.9067 2.92181 -16.167
ltibia 47.1041
lfoot -11.496 8.12271
ltoes 0.00328471
245
root -0.131152 17.4617 -5.34216 3.46226 -6.2908 -3.10513
lowerback 7.23802 1.5929 3.29352
upperback 1.08327 2.45149 2.51732
thorax -2.90963 1.19356 0.516395
lowerneck -16.8428 -4.74321 -9.26893
upperneck 20.2805 -5.73153 6.96758
head 9.67763 -2.61611 3.19646
rclavicle 5.41688e-014 5.08889e-014
rhumerus -26.9044 -7.04238 -81.1452
rradius 32.562
rwrist 4.0119
rhand -15.483 11.6418
rfingers 7.12502
rthumb 10.6988 -18.0658
lclavicle 5.41688e-014 5.08889e-014
lhumerus -34.6053 3.40483 85.766
lradius 32.3231
lwrist -6.54749
lhand -10.9233 26.3723
lfingers 7.12502
lthumb 15.0944 55.802
rfemur 0.0978154 4.42643 29.0987
rtibia 19.9372
rfoot -16.383 -6.01996
rtoes 0.90421
lfemur -33.1738 2.53081 -15.8167
ltibia 44.7765
lfoot -11.0967 8.66339
ltoes -0.650174
246
root -0.132318 17.4448 -5.16915 3.62163 -6.224 -3.19635
lowerback 7.22103 1.58106 3.35764
upperback 1.08115 2.44055 2.53853
thorax -2.90076 1.18762 0.504029
lowerneck -17.1702 -4.6569 -9.28138
upperneck 20.3868 -5.59551 7.0231
head 9.76531 -2.5415 3.23528
rclavicle -9.14409e-015 -7.95139e-015
rhumerus -26.5191 -6.61112 -81.2212
rradius 33.0658
rwrist 3.95055
rhand -15.1111 11.5078
rfingers 7.12502
rthumb 11.0576 -18.181
lclavicle -9.14409e-015 -7.95139e-015
lhumerus -34.7882 3.4602 85.8095
lradius 32.214
lwrist -6.41326
lhand -11.9836 25.1387
lfingers 7.12502
lthumb 14.0728 54.6422
rfemur 1.14619 4.41269 29.2447
rtibia 19.0539
rfoot -16.4247 -6.23858
rtoes 2.80998
lfemur -33.5371 2.06251 -15.5296
ltibia 42.3501
lfoot -10.5746 9.09849
ltoes -2.62576
247
root -0.133872 17.4273 -4.99675 3.81086 -6.28188 -3.13396
lowerback 7.24699 1.59512 3.21005
upperback 0.909161 2.45682 2.53811
thorax -3.09934 1.19392 0.580812
lowerneck -16.9593 -4.57301 -9.33782
upperneck 20.3822 -5.48563 7.03821
head 9.71645 -2.49776 3.26811
rclavicle 6.26172e-015 -7.95139e-015
rhumerus -26.2895 -6.05195 -81.2669
rradius 33.3452
rwrist 3.74321
rhand -14.9685 11.586
rfingers 7.12502
rthumb 11.1952 -18.0953
lclavicle 6.26172e-015 -7.95139e-015
lhumerus -35.2758 3.74964 85.6711
lradius 32.1701
lwrist -6.77518
lhand -11.376 25.384
lfingers 7.12502
lthumb 14.6583 54.8459
rfemur 2.16193 4.63668 29.1933
rtibia 18.1217
rfoot -16.2991 -6.26675
rtoes 5.6072
lfemur -33.9009 1.52618 -15.3574
ltibia 39.8687
lfoot -9.39211 9.44227
ltoes -4.52293
248
root -0.132679 17.4161 -4.81918 3.98631 -6.45927 -3.1486
lowerback 7.2243 1.68251 3.17844
upperback 0.777671 2.57456 2.52025
thorax -3.22206 1.2505 0.567218
lowerneck -16.7035 -4.58703 -9.3689
upperneck 20.4169 -5.52919 7.06536
head 9.68697 -2.52273 3.28008
rclavicle 2.50469e-014 -7.95139e-015
rhumerus -25.8379 -5.67381 -81.3097
rradius 33.3122
rwrist 3.49227
rhand -15.0595 12.3664
rfingers 7.12502
rthumb 11.1074 -17.3197
lclavicle 2.50469e-014 -7.95139e-015
lhumerus -35.6865 3.85486 85.5404
lradius 32.1328
lwrist -7.39037
lhand -10.269 26.6868
lfingers 7.12502
lthumb 15.7246 56.068
rfemur 3.07881 4.77474 29.1754
rtibia 17.2043
rfoot -15.8384 -6.19549
rtoes 7.39211
lfemur -34.099 0.894944 -15.0162
ltibia 37.3287
lfoot -7.77426 9.81025
ltoes -5.56742
